<svg id="Capa_1" data-name="Capa 1" xmlns="http://www.w3.org/2000/svg" viewBox="0 0 63.49 60.93"><defs><style>.cls-1{fill:#212f3c;}</style></defs><path class="cls-1" d="M24.45,47.21c-.16,1.33-.36,2.34-.38,3.36,0,1.63.09,3.27,0,4.91a1.67,1.67,0,0,1-.8,1.08c-3.35,1.95-6.72,3.87-10.13,5.72a2.16,2.16,0,0,1-1.76,0c-3.19-1.72-6.34-3.53-9.49-5.33A3,3,0,0,1,.25,54.05Q.32,37.4.27,20.77a1.93,1.93,0,0,1,1.09-1.9q14.76-8.44,29.48-17a2,2,0,0,1,2.33,0C43,7.59,52.91,13.24,62.75,19a2.38,2.38,0,0,1,1,1.75c0,7.61-.06,15.21-.07,22.82,0,3.72.12,7.44.09,11.16A2.25,2.25,0,0,1,63,56.38c-3.14,1.9-6.38,3.63-9.52,5.52a2.85,2.85,0,0,1-3.4,0c-3.12-1.93-6.33-3.72-9.47-5.64a1.91,1.91,0,0,1-.84-1.34c-.05-2.23,0-4.47,0-6.7,0-.31,0-.78-.21-.89a1.13,1.13,0,0,0-.93.13c-1.55.94-3.12,1.86-4.59,2.92a3.23,3.23,0,0,1-3.87.08c-1.33-.77-2.61-1.62-3.93-2.41C25.8,47.78,25.3,47.6,24.45,47.21ZM10.31,34.28c.69.36,1.12.58,1.54.82C17.93,38.59,24,42,30.07,45.6c1.35.79,2.43,1.06,3.77.07a34.25,34.25,0,0,1,3.41-2q6.28-3.6,12.56-7.2c1.23-.7,2.47-1.38,4.06-2.26V56.77c1.68-.93,3-1.71,4.34-2.38a2.24,2.24,0,0,0,1.38-2.34c-.05-8.56,0-17.12,0-25.68,0-.52-.07-1-.13-1.81-.88.46-1.54.76-2.17,1.12-7.89,4.53-15.8,9-23.66,13.62a2.69,2.69,0,0,1-3.11,0c-7.95-4.64-15.94-9.19-23.93-13.77-.57-.32-1.18-.58-2-1-.05.81-.1,1.34-.1,1.87q0,11.4,0,22.8c0,.84-.18,1.68-.15,2.51,0,.62,0,1.53.44,1.8,1.71,1.18,3.56,2.17,5.55,3.35ZM6.79,20.7c.55.39.88.66,1.25.87Q19.5,28.14,31,34.71a2,2,0,0,0,2.33-.11q11.31-6.51,22.65-13c.4-.23.79-.51,1.32-.86-.46-.34-.71-.57-1-.74-4.39-2.54-8.81-5-13.18-7.61a2,2,0,0,0-2.31,0c-4.29,2.52-8.61,5-12.91,7.48-.36.21-.69.48-1.26.9,1.58.94,2.95,1.71,4.26,2.57a1.92,1.92,0,0,0,2.32,0q3.76-2.28,7.61-4.43a2.19,2.19,0,0,1,1.61-.32,33.89,33.89,0,0,1,3.47,1.92,5.27,5.27,0,0,1-.66.62C41.09,23.59,37,26,32.81,28.35a2.26,2.26,0,0,1-1.87-.16c-3.89-2.2-7.74-4.49-11.6-6.75-.31-.19-.58-.45-1.06-.81L37.67,9.38c-1.56-.93-2.86-1.62-4.07-2.45a2.56,2.56,0,0,0-3.12,0c-7.42,4.34-14.89,8.61-22.34,12.9C7.73,20,7.35,20.33,6.79,20.7Zm7.87,20.93a3.66,3.66,0,0,0-.23.72c-.1,4.44-.23,8.89-.28,13.33,0,.87.45,1.28,1.38.66a27.43,27.43,0,0,1,3.83-2.28,1.73,1.73,0,0,0,1.16-1.82c0-2.18,0-4.37,0-6.55,0-.37-.1-.93-.35-1.07C18.38,43.59,16.56,42.65,14.66,41.63Zm34.93-.21c-2,1.15-3.63,2-5.19,3.06a2,2,0,0,0-.5,1.45c0,2.13,0,4.27,0,6.41a2,2,0,0,0,.52,1.43c1.52,1,3.14,1.94,5.14,3.14Z" transform="translate(-0.25 -1.54)"/></svg>